<svg width="468" height="200" viewBox="0 0 468 200" fill="none" xmlns="http://www.w3.org/2000/svg">
<path d="M93.8377 199.015H76.3196V146.746H91.4373C102.177 146.746 109.24 151.546 109.24 160.379C109.24 164.333 107.401 168.641 103.024 171.042V171.257C110.863 174.011 112.064 180.72 112.064 183.69C112.064 194.63 103.655 199.015 93.8377 199.015ZM91.722 155.07H85.5056V167.926H92.3605C95.6072 167.926 100.131 167.149 100.131 161.425C100.123 156.278 95.6072 155.07 91.722 155.07ZM93.2068 175.981H85.5056V190.675H93.2761C97.1613 190.675 102.816 189.898 102.885 183.19C102.885 176.904 97.5152 175.981 93.2068 175.981Z" fill="black"/>
<path d="M154.724 193.999C151.193 197.884 146.392 200 140.807 200C136.852 200 130.705 198.661 126.681 194.068C122.796 189.614 121.881 185.452 121.881 179.02V146.738H131.421V178.951C131.421 182.197 131.559 185.875 133.752 188.414C135.521 190.745 138.275 191.591 140.745 191.591C143.499 191.591 146.254 190.675 148.023 188.198C149.862 185.652 150 182.405 150 179.012V146.73H159.54V178.943C159.533 186.082 157.979 190.391 154.724 193.999Z" fill="black"/>
<path d="M187.498 200C175.843 200 170.542 193.43 169.98 183.898H179.443C179.936 190.045 184.321 191.953 187.429 191.953C191.738 191.953 195.2 188.56 195.2 184.39C195.2 178.812 190.607 177.396 184.036 174.927C179.936 173.511 170.896 170.472 170.896 160.586C170.896 151.331 179.228 145.753 187.637 145.753C192.515 145.753 197.454 147.592 200.493 151.192C203.039 154.231 203.532 157.27 203.739 160.025H194.346C193.923 157.34 192.299 153.808 187.352 153.808C183.467 153.808 180.359 156.632 180.359 160.379C180.359 165.179 183.682 166.241 192.153 169.565C201.054 173.027 204.655 178.112 204.655 184.398C204.663 192.299 199.223 200 187.498 200Z" fill="black"/>
<path d="M215.68 199.015V146.746H225.143V199.015H215.68Z" fill="black"/>
<path d="M280.736 200H278.051L246.9 164.895H246.615V199.015H237.714V145.753H240.399L271.619 180.72H271.903V146.746H280.736V200Z" fill="black"/>
<path d="M293.307 199.015V146.746H322.196V155.078H302.485V168.357H318.942V176.689H302.485V190.675H322.196V199.008H293.307V199.015Z" fill="black"/>
<path d="M350.308 200C338.652 200 333.351 193.43 332.79 183.898H342.253C342.745 190.045 347.123 191.953 350.239 191.953C354.547 191.953 358.009 188.56 358.009 184.39C358.009 178.812 353.416 177.396 346.846 174.927C342.753 173.511 333.705 170.472 333.705 160.586C333.705 151.331 342.037 145.753 350.446 145.753C355.324 145.753 360.263 147.592 363.302 151.192C365.841 154.231 366.341 157.27 366.549 160.025H357.155C356.732 157.34 355.109 153.808 350.162 153.808C346.276 153.808 343.168 156.632 343.168 160.379C343.168 165.179 346.492 166.241 354.962 169.565C363.864 173.027 367.464 178.112 367.464 184.398C367.472 192.299 362.033 200 350.308 200Z" fill="black"/>
<path d="M394.246 200C382.59 200 377.289 193.43 376.728 183.898H386.191C386.683 190.045 391.06 191.953 394.176 191.953C398.485 191.953 401.947 188.56 401.947 184.39C401.947 178.812 397.354 177.396 390.784 174.927C386.691 173.511 377.643 170.472 377.643 160.586C377.643 151.331 385.975 145.753 394.384 145.753C399.262 145.753 404.201 147.592 407.24 151.192C409.779 154.231 410.279 157.27 410.487 160.025H401.093C400.67 157.34 399.046 153.808 394.099 153.808C390.214 153.808 387.106 156.632 387.106 160.379C387.106 165.179 390.43 166.241 398.9 169.565C407.802 173.027 411.402 178.112 411.402 184.398C411.41 192.299 405.971 200 394.246 200Z" fill="black"/>
<path d="M383.705 4.53139H394.992V117.172H384.806V118.387H467.934V76.0347H467.357C465.349 120.226 414.187 117.172 414.187 117.172L414.472 117.218V60.3477C424.466 60.3477 438.052 58.909 440.06 84.7514H440.414V35.0515H440.06C437.483 58.9013 424.219 59.0706 414.472 59.0706V4.30828V4.74681C433.675 4.74681 454.709 0.969303 462.871 42.1603H463.333V3.38506H383.705V4.53139Z" fill="black"/>
<path d="M386.029 4.516V3.38506H362.341V4.516H372.819V88.6751C372.434 109.801 357.101 119.488 345.276 119.057C323.581 118.272 321.088 97.7381 321.088 93.5066V4.516H331.467V3.38506H291.099V4.516H301.808L301.777 83.205C301.777 104.301 312.494 120.572 343.792 120.572C364.779 120.572 374.412 103.139 374.196 88.6828V4.516H386.029Z" fill="black"/>
<path d="M282.99 71.0802H291.791V69.9415H255.601V71.0802H264.895V96.5687C264.895 108.363 259.809 119.134 243.699 119.449C232.113 119.611 225.75 113.048 222.357 103.962C218.688 94.2376 217.334 84.036 217.334 60.9171C217.334 46.0917 218.688 24.0883 223.773 14.2022C226.173 9.5784 230.559 1.40022 243.415 1.44638C259.54 1.50792 268.926 14.6792 275.858 42.2604H276.204V0H275.835C272.442 8.13202 259.663 4.15449 259.663 4.15449C252.601 1.92337 249.492 0.33082 243.268 0.33082C223.342 0.33082 195.923 20.5801 195.923 62.3558C195.923 96.4764 216.41 120.572 244.392 120.572C255.978 120.572 263.048 112.133 272.934 112.133C276.043 112.133 281.743 114.079 282.736 119.018H282.974L282.99 71.0802Z" fill="black"/>
<path d="M164.272 60.2708C164.272 68.4105 163.633 94.4146 156.84 107.34C152.593 115.641 145.238 119.141 136.598 119.141C127.966 119.141 120.603 115.633 116.364 107.34C109.571 94.4146 108.932 68.4029 108.932 60.2708C108.932 52.1311 109.571 26.9195 116.364 13.5175C120.473 5.2162 127.966 1.71566 136.598 1.71566C145.23 1.71566 152.731 5.2239 156.84 13.5175C163.633 26.9195 164.272 52.1311 164.272 60.2708ZM186.137 60.2708C186.137 24.2114 160.24 0.592414 136.606 0.592414C112.971 0.592414 87.0751 24.2114 87.0751 60.2708C87.0751 96.3302 113.825 120.265 136.606 120.265C159.386 120.265 186.137 96.3302 186.137 60.2708Z" fill="black"/>
<path d="M76.4118 3.40046V4.50063H87.0826L60.8171 92.3988L29.0891 4.50063H38.2597V3.40046H0V4.50063H10.5016L53.5236 119.011H54.1391L88.3828 4.50063H97.5381V3.40046H76.4118Z" fill="black"/>
</svg>
